<svg width="20" height="24" viewBox="0 0 20 24" fill="none" xmlns="http://www.w3.org/2000/svg">
<path d="M19.192 0.331L18.483 0.578C18.464 0.584 16.544 1.242 13.507 1.242C11.96 1.242 10.486 0.928 9.062 0.625C7.621 0.318 6.131 0 4.554 0C1.408 0 0.342 0.675 0.23 0.752L0 0.911V23.458H1.066V13.262C1.49 13.096 2.531 12.801 4.553 12.801C6.018 12.801 7.388 13.093 8.839 13.402C10.318 13.718 11.847 14.043 13.506 14.043C16.739 14.043 18.751 13.348 18.836 13.319L19.192 13.194V0.33V0.331ZM18.126 12.42C17.436 12.608 15.786 12.978 13.506 12.978C11.959 12.978 10.485 12.664 9.061 12.36C7.62 12.053 6.13 11.735 4.553 11.735C2.826 11.735 1.725 11.939 1.066 12.135V1.526C1.493 1.36 2.536 1.066 4.553 1.066C6.018 1.066 7.388 1.358 8.839 1.667C10.318 1.982 11.847 2.308 13.506 2.308C15.654 2.308 17.262 2.001 18.126 1.787V12.419V12.42Z" fill="#ACB1B6"/>
</svg>
